<svg id="color" enable-background="new 0 0 24 24" height="512" viewBox="0 0 24 24" width="512" xmlns="http://www.w3.org/2000/svg"><g><g><path d="m16.5 20c-.414 0-.75-.336-.75-.75v-2c0-.414.336-.75.75-.75s.75.336.75.75v2c0 .414-.336.75-.75.75z" fill="#ff9800"/></g></g><g><g><path d="m7.5 20c-.414 0-.75-.336-.75-.75v-2c0-.414.336-.75.75-.75s.75.336.75.75v2c0 .414-.336.75-.75.75z" fill="#ff9800"/></g></g><g><g><path d="m7.5 16.48c-.414 0-.75.336-.75.75v2c0 .414.336.75.75.75z" fill="#de8400"/></g></g><g><g><path d="m16.5 16.48c-.414 0-.75.336-.75.75v2c0 .414.336.75.75.75z" fill="#de8400"/></g></g><g><g><path d="m24 18.75v5.25h-4.13c-.08-.31-.12-.64-.12-.98 0-.5.08-.99.25-1.44.58-1.64 2.14-2.82 3.98-2.83z" fill="#cfd8dc"/></g></g><g><g><path d="m21.62 24h-8.24c.12-.54.35-1.03.67-1.46.76-1.08 2.03-1.79 3.45-1.79.94 0 1.8.31 2.5.83.8.57 1.39 1.43 1.62 2.42z" fill="#eceff1"/></g></g><g><g><path d="m4 9c-.414 0-.75-.336-.75-.75v-1c0-.414.336-.75.75-.75s.75.336.75.75v1c0 .414-.336.75-.75.75z" fill="#4caf50"/></g></g><g><g><path d="m4.125 8h-1.375c-.414 0-.75-.336-.75-.75s.336-.75.75-.75h1.375c.207 0 .375-.168.375-.375s-.168-.375-.375-.375h-.25c-1.034 0-1.875-.841-1.875-1.875s.841-1.875 1.875-1.875h1.375c.414 0 .75.336.75.75s-.336.75-.75.75h-1.375c-.207 0-.375.168-.375.375s.168.375.375.375h.25c1.034 0 1.875.841 1.875 1.875s-.841 1.875-1.875 1.875z" fill="#4caf50"/></g></g><g><g><path d="m4 3.5c-.414 0-.75-.336-.75-.75v-1c0-.414.336-.75.75-.75s.75.336.75.75v1c0 .414-.336.75-.75.75z" fill="#4caf50"/></g></g><g><g><path d="m4 8h-.75v.25c0 .414.336.75.75.75z" fill="#429846"/></g></g><g><g><path d="m4 6.5h-1.25c-.414 0-.75.336-.75.75s.336.75.75.75h.5.75zm-.75-4.393c-.727.258-1.25.953-1.25 1.768 0 1.034.841 1.875 1.875 1.875h.125v-1.5h-.125c-.207 0-.375-.168-.375-.375s.168-.375.375-.375h.125c-.414 0-.75-.336-.75-.75z" fill="#429846"/></g></g><g><g><path d="m4 1c-.414 0-.75.336-.75.75v.357.643c0 .414.336.75.75.75z" fill="#429846"/></g></g><g><g><path d="m22 15c-.414 0-.75-.336-.75-.75v-1c0-.414.336-.75.75-.75s.75.336.75.75v1c0 .414-.336.75-.75.75z" fill="#4caf50"/></g></g><g><g><path d="m22.125 14h-1.375c-.414 0-.75-.336-.75-.75s.336-.75.75-.75h1.375c.207 0 .375-.168.375-.375s-.168-.375-.375-.375h-.25c-1.034 0-1.875-.841-1.875-1.875s.841-1.875 1.875-1.875h1.375c.414 0 .75.336.75.75s-.336.75-.75.75h-1.375c-.207 0-.375.168-.375.375s.168.375.375.375h.25c1.034 0 1.875.841 1.875 1.875 0 1.033-.841 1.875-1.875 1.875z" fill="#4caf50"/></g></g><g><g><path d="m22 9.5c-.414 0-.75-.336-.75-.75v-1c0-.414.336-.75.75-.75s.75.336.75.75v1c0 .414-.336.75-.75.75z" fill="#4caf50"/></g></g><g><g><path d="m22 14h-.75v.25c0 .414.336.75.75.75z" fill="#429846"/></g></g><g><g><path d="m22 12.5h-1.25c-.414 0-.75.336-.75.75s.336.75.75.75h.5.75zm-.75-4.393c-.727.258-1.25.953-1.25 1.768 0 1.034.841 1.875 1.875 1.875h.125v-1.5h-.125c-.207 0-.375-.168-.375-.375s.168-.375.375-.375h.125c-.414 0-.75-.336-.75-.75z" fill="#429846"/></g></g><g><g><path d="m22 7c-.414 0-.75.336-.75.75v.357.643c0 .414.336.75.75.75z" fill="#429846"/></g></g><g><g><path d="m4.25 23c0 .35-.04.68-.13 1h-4.12v-5.25c1.84 0 3.41 1.18 3.99 2.82.17.45.26.93.26 1.43z" fill="#cfd8dc"/></g></g><g><g><path d="m18.25 18h-12.5c-.414 0-.75-.336-.75-.75v-.922c0-.734.286-1.425.806-1.944l2.194-2.195v-6.019c0-1.087.377-2.151 1.063-2.995l2.354-2.898c.285-.351.879-.351 1.164 0l2.354 2.898c.688.844 1.065 1.908 1.065 2.995v6.02l2.194 2.194c.52.52.806 1.21.806 1.944v.922c0 .414-.336.75-.75.75z" fill="#eceff1"/></g></g><g><g><path d="m13.25 7.018c-.192 0-.384-.073-.53-.22-.396-.396-1.043-.396-1.439 0-.293.293-.768.293-1.061 0s-.293-.768 0-1.061c.981-.981 2.579-.981 3.561 0 .293.292.293.768 0 1.061-.147.146-.339.22-.531.22z" fill="#607d8b"/></g></g><g><g><path d="m10.6 24h-8.24c.23-1 .82-1.85 1.63-2.43.7-.52 1.56-.82 2.49-.82 1.43 0 2.69.71 3.46 1.79.31.43.54.92.66 1.46z" fill="#eceff1"/></g></g><g><g><path d="m15.59 24h-7.18c.37-.61.9-1.11 1.53-1.46.61-.34 1.31-.54 2.06-.54.74 0 1.44.19 2.05.54.63.34 1.17.85 1.54 1.46z" fill="#cfd8dc"/></g></g><g><g><path d="m0 18.75v5.25h4.12-1.76c.23-1 .82-1.85 1.63-2.43-.58-1.64-2.15-2.82-3.99-2.82z" fill="#b4bcc0"/></g></g><g><g><path d="m12 .014c-.22 0-.439.088-.582.263l-2.355 2.898c-.686.844-1.063 1.908-1.063 2.995v6.02l-2.194 2.194c-.52.519-.806 1.21-.806 1.944v.922c0 .414.336.75.75.75h1 1.5 3.75v-11.5c-.261 0-.521.099-.72.297-.146.146-.338.22-.531.22-.192 0-.384-.073-.531-.22-.293-.293-.293-.768 0-1.061.492-.489 1.137-.735 1.782-.735z" fill="#cdd0d2"/></g></g><g><g><path d="m12 5.001c-.645 0-1.29.245-1.78.736-.293.292-.293.768 0 1.061.146.146.338.22.531.22.192 0 .384-.073.531-.22.197-.198.457-.298.718-.298z" fill="#546d79"/></g></g><g><g><path d="m6.48 20.75c-.93 0-1.79.3-2.49.82-.81.58-1.4 1.43-1.63 2.43h1.76 6.48-2.19c.37-.61.9-1.11 1.53-1.46-.77-1.08-2.03-1.79-3.46-1.79z" fill="#cdd0d2"/></g></g><g><g><path d="m12 22c-.75 0-1.45.2-2.06.54-.63.35-1.16.85-1.53 1.46h2.19 1.4z" fill="#b4bcc0"/></g></g></svg>